# MagicaVoxel @ Ephtracy

# group
g trackfield_middle

# material
mtllib trackfield_middle.mtl
usemtl palette

# normals
vn -1 0 0
vn 1 0 0
vn 0 0 1
vn 0 0 -1
vn 0 -1 0
vn 0 1 0

# texcoords
vt 0.876953 0.5
vt 0.880859 0.5
vt 0.884766 0.5
vt 0.919922 0.5
vt 0.923828 0.5
vt 0.974609 0.5
vt 0.978516 0.5

# verts
v -16 0 16
v -16 0 -16
v -16 2 16
v -16 2 -16
v -16 10 -11
v -16 10 -12
v -16 11 16
v -16 11 -11
v -16 11 -12
v -16 11 -16
v -16 12 16
v -16 12 -16
v -16 15 15
v -16 15 13
v -16 15 5
v -16 15 4
v -16 15 -4
v -16 15 -5
v -16 15 -13
v -16 15 -15
v -16 16 16
v -16 16 15
v -16 16 13
v -16 16 5
v -16 16 4
v -16 16 -4
v -16 16 -5
v -16 16 -13
v -16 16 -15
v -16 16 -16
v 16 0 16
v 16 0 -16
v 16 2 16
v 16 2 -16
v 16 10 16
v 16 10 15
v 16 10 7
v 16 10 6
v 16 10 -8
v 16 10 -9
v 16 10 -13
v 16 10 -14
v 16 11 16
v 16 11 15
v 16 11 7
v 16 11 6
v 16 11 -8
v 16 11 -9
v 16 11 -13
v 16 11 -14
v 16 11 -16
v 16 12 16
v 16 12 -16
v 16 15 15
v 16 15 13
v 16 15 5
v 16 15 4
v 16 15 -4
v 16 15 -5
v 16 15 -13
v 16 15 -15
v 16 16 16
v 16 16 15
v 16 16 13
v 16 16 5
v 16 16 4
v 16 16 -4
v 16 16 -5
v 16 16 -13
v 16 16 -15
v 16 16 -16
v -16 0 16
v -16 2 16
v -16 11 16
v -16 12 16
v -16 16 16
v -14 9 16
v -14 10 16
v -13 9 16
v -13 10 16
v 5 10 16
v 5 11 16
v 6 10 16
v 6 11 16
v 8 10 16
v 8 11 16
v 9 10 16
v 9 11 16
v 15 10 16
v 15 11 16
v 16 0 16
v 16 2 16
v 16 10 16
v 16 11 16
v 16 12 16
v 16 16 16
v -16 0 -16
v -16 2 -16
v -16 11 -16
v -16 12 -16
v -16 16 -16
v -14 10 -16
v -14 11 -16
v -13 10 -16
v -13 11 -16
v -11 9 -16
v -11 10 -16
v -10 9 -16
v -10 10 -16
v 0 10 -16
v 0 11 -16
v 1 10 -16
v 1 11 -16
v 14 10 -16
v 14 11 -16
v 15 10 -16
v 15 11 -16
v 16 0 -16
v 16 2 -16
v 16 11 -16
v 16 12 -16
v 16 16 -16
v -16 0 16
v 16 0 16
v -16 0 -16
v 16 0 -16
v -16 16 16
v 16 16 16
v -16 16 15
v 16 16 15
v -16 16 13
v 16 16 13
v -16 16 5
v 16 16 5
v -16 16 4
v 16 16 4
v -16 16 -4
v 16 16 -4
v -16 16 -5
v 16 16 -5
v -16 16 -13
v 16 16 -13
v -16 16 -15
v 16 16 -15
v -16 16 -16
v 16 16 -16

# faces
f 3/4/1 2/4/1 1/4/1
f 4/4/1 2/4/1 3/4/1
f 5/5/1 4/5/1 3/5/1
f 6/5/1 4/5/1 5/5/1
f 7/5/1 5/5/1 3/5/1
f 8/6/1 6/6/1 5/6/1
f 8/5/1 5/5/1 7/5/1
f 9/5/1 4/5/1 6/5/1
f 9/6/1 6/6/1 8/6/1
f 10/5/1 4/5/1 9/5/1
f 11/2/1 8/2/1 7/2/1
f 11/2/1 9/2/1 8/2/1
f 11/2/1 10/2/1 9/2/1
f 12/2/1 10/2/1 11/2/1
f 13/1/1 12/1/1 11/1/1
f 14/1/1 12/1/1 13/1/1
f 15/1/1 12/1/1 14/1/1
f 16/1/1 12/1/1 15/1/1
f 17/1/1 12/1/1 16/1/1
f 18/1/1 12/1/1 17/1/1
f 19/1/1 12/1/1 18/1/1
f 20/1/1 12/1/1 19/1/1
f 21/1/1 13/1/1 11/1/1
f 22/3/1 14/3/1 13/3/1
f 22/1/1 13/1/1 21/1/1
f 23/1/1 15/1/1 14/1/1
f 23/3/1 14/3/1 22/3/1
f 24/3/1 16/3/1 15/3/1
f 24/1/1 15/1/1 23/1/1
f 25/1/1 17/1/1 16/1/1
f 25/3/1 16/3/1 24/3/1
f 26/3/1 18/3/1 17/3/1
f 26/1/1 17/1/1 25/1/1
f 27/1/1 19/1/1 18/1/1
f 27/3/1 18/3/1 26/3/1
f 28/3/1 20/3/1 19/3/1
f 28/1/1 19/1/1 27/1/1
f 29/1/1 12/1/1 20/1/1
f 29/3/1 20/3/1 28/3/1
f 30/1/1 12/1/1 29/1/1
f 31/4/2 32/4/2 33/4/2
f 33/4/2 32/4/2 34/4/2
f 33/5/2 34/5/2 35/5/2
f 35/5/2 34/5/2 36/5/2
f 36/5/2 34/5/2 37/5/2
f 37/5/2 34/5/2 38/5/2
f 38/5/2 34/5/2 39/5/2
f 39/5/2 34/5/2 40/5/2
f 40/5/2 34/5/2 41/5/2
f 41/5/2 34/5/2 42/5/2
f 35/7/2 36/7/2 43/7/2
f 36/5/2 37/5/2 44/5/2
f 43/7/2 36/7/2 44/7/2
f 37/7/2 38/7/2 45/7/2
f 44/5/2 37/5/2 45/5/2
f 38/5/2 39/5/2 46/5/2
f 45/7/2 38/7/2 46/7/2
f 39/7/2 40/7/2 47/7/2
f 46/5/2 39/5/2 47/5/2
f 40/5/2 41/5/2 48/5/2
f 47/7/2 40/7/2 48/7/2
f 41/6/2 42/6/2 49/6/2
f 48/5/2 41/5/2 49/5/2
f 42/5/2 34/5/2 50/5/2
f 49/6/2 42/6/2 50/6/2
f 50/5/2 34/5/2 51/5/2
f 48/2/2 49/2/2 52/2/2
f 43/2/2 44/2/2 52/2/2
f 50/2/2 51/2/2 52/2/2
f 49/2/2 50/2/2 52/2/2
f 47/2/2 48/2/2 52/2/2
f 46/2/2 47/2/2 52/2/2
f 45/2/2 46/2/2 52/2/2
f 44/2/2 45/2/2 52/2/2
f 52/2/2 51/2/2 53/2/2
f 52/1/2 53/1/2 54/1/2
f 54/1/2 53/1/2 55/1/2
f 55/1/2 53/1/2 56/1/2
f 56/1/2 53/1/2 57/1/2
f 57/1/2 53/1/2 58/1/2
f 58/1/2 53/1/2 59/1/2
f 59/1/2 53/1/2 60/1/2
f 60/1/2 53/1/2 61/1/2
f 52/1/2 54/1/2 62/1/2
f 54/3/2 55/3/2 63/3/2
f 62/1/2 54/1/2 63/1/2
f 55/1/2 56/1/2 64/1/2
f 63/3/2 55/3/2 64/3/2
f 56/3/2 57/3/2 65/3/2
f 64/1/2 56/1/2 65/1/2
f 57/1/2 58/1/2 66/1/2
f 65/3/2 57/3/2 66/3/2
f 58/3/2 59/3/2 67/3/2
f 66/1/2 58/1/2 67/1/2
f 59/1/2 60/1/2 68/1/2
f 67/3/2 59/3/2 68/3/2
f 60/3/2 61/3/2 69/3/2
f 68/1/2 60/1/2 69/1/2
f 61/1/2 53/1/2 70/1/2
f 69/3/2 61/3/2 70/3/2
f 70/1/2 53/1/2 71/1/2
f 77/5/3 74/5/3 73/5/3
f 78/5/3 74/5/3 77/5/3
f 79/5/3 77/5/3 73/5/3
f 79/6/3 78/6/3 77/6/3
f 80/5/3 74/5/3 78/5/3
f 80/6/3 78/6/3 79/6/3
f 81/5/3 80/5/3 79/5/3
f 81/5/3 74/5/3 80/5/3
f 82/2/3 75/2/3 74/2/3
f 82/5/3 74/5/3 81/5/3
f 83/5/3 81/5/3 79/5/3
f 83/6/3 82/6/3 81/6/3
f 84/2/3 75/2/3 82/2/3
f 84/6/3 82/6/3 83/6/3
f 85/5/3 83/5/3 79/5/3
f 85/5/3 84/5/3 83/5/3
f 86/2/3 75/2/3 84/2/3
f 86/5/3 84/5/3 85/5/3
f 87/5/3 85/5/3 79/5/3
f 87/7/3 86/7/3 85/7/3
f 88/2/3 75/2/3 86/2/3
f 88/7/3 86/7/3 87/7/3
f 89/5/3 87/5/3 79/5/3
f 89/5/3 88/5/3 87/5/3
f 90/2/3 75/2/3 88/2/3
f 90/5/3 88/5/3 89/5/3
f 91/4/3 73/4/3 72/4/3
f 92/5/3 89/5/3 79/5/3
f 92/4/3 73/4/3 91/4/3
f 92/5/3 79/5/3 73/5/3
f 93/7/3 90/7/3 89/7/3
f 93/5/3 89/5/3 92/5/3
f 94/2/3 75/2/3 90/2/3
f 94/7/3 90/7/3 93/7/3
f 95/1/3 76/1/3 75/1/3
f 95/2/3 75/2/3 94/2/3
f 96/1/3 76/1/3 95/1/3
f 98/5/4 99/5/4 102/5/4
f 99/2/4 100/2/4 103/2/4
f 102/5/4 99/5/4 103/5/4
f 98/5/4 102/5/4 104/5/4
f 102/7/4 103/7/4 104/7/4
f 103/2/4 100/2/4 105/2/4
f 104/7/4 103/7/4 105/7/4
f 98/5/4 104/5/4 106/5/4
f 104/5/4 105/5/4 106/5/4
f 106/5/4 105/5/4 107/5/4
f 98/5/4 106/5/4 108/5/4
f 106/6/4 107/6/4 108/6/4
f 107/5/4 105/5/4 109/5/4
f 108/6/4 107/6/4 109/6/4
f 108/5/4 109/5/4 110/5/4
f 109/5/4 105/5/4 110/5/4
f 105/2/4 100/2/4 111/2/4
f 110/5/4 105/5/4 111/5/4
f 108/5/4 110/5/4 112/5/4
f 110/7/4 111/7/4 112/7/4
f 111/2/4 100/2/4 113/2/4
f 112/7/4 111/7/4 113/7/4
f 108/5/4 112/5/4 114/5/4
f 112/5/4 113/5/4 114/5/4
f 113/2/4 100/2/4 115/2/4
f 114/5/4 113/5/4 115/5/4
f 108/5/4 114/5/4 116/5/4
f 114/7/4 115/7/4 116/7/4
f 115/2/4 100/2/4 117/2/4
f 116/7/4 115/7/4 117/7/4
f 97/4/4 98/4/4 118/4/4
f 108/5/4 116/5/4 119/5/4
f 118/4/4 98/4/4 119/4/4
f 98/5/4 108/5/4 119/5/4
f 116/5/4 117/5/4 119/5/4
f 117/2/4 100/2/4 120/2/4
f 119/5/4 117/5/4 120/5/4
f 100/1/4 101/1/4 121/1/4
f 120/2/4 100/2/4 121/2/4
f 121/1/4 101/1/4 122/1/4
f 125/4/5 124/4/5 123/4/5
f 126/4/5 124/4/5 125/4/5
f 127/1/6 128/1/6 129/1/6
f 129/1/6 128/1/6 130/1/6
f 129/3/6 130/3/6 131/3/6
f 131/3/6 130/3/6 132/3/6
f 131/1/6 132/1/6 133/1/6
f 133/1/6 132/1/6 134/1/6
f 133/3/6 134/3/6 135/3/6
f 135/3/6 134/3/6 136/3/6
f 135/1/6 136/1/6 137/1/6
f 137/1/6 136/1/6 138/1/6
f 137/3/6 138/3/6 139/3/6
f 139/3/6 138/3/6 140/3/6
f 139/1/6 140/1/6 141/1/6
f 141/1/6 140/1/6 142/1/6
f 141/3/6 142/3/6 143/3/6
f 143/3/6 142/3/6 144/3/6
f 143/1/6 144/1/6 145/1/6
f 145/1/6 144/1/6 146/1/6
