# MagicaVoxel @ Ephtracy

# group
g Barricade-0

# material
mtllib Barricade-0.mtl
usemtl palette

# normals
vn -1 0 0
vn 1 0 0
vn 0 0 1
vn 0 0 -1
vn 0 -1 0
vn 0 1 0

# texcoords
vt 0.978516 0.5
vt 0.982422 0.5

# verts
v -16 0 4
v -16 0 2
v -16 0 -2
v -16 0 -4
v -16 1 2
v -16 1 -2
v -16 2 4
v -16 2 2
v -16 2 -2
v -16 2 -4
v -14 1 1
v -14 1 -1
v -14 17 1
v -14 17 -1
v 12 1 1
v 12 1 -1
v 12 17 1
v 12 17 -1
v -12 1 1
v -12 1 -1
v -12 17 1
v -12 17 -1
v 14 1 1
v 14 1 -1
v 14 17 1
v 14 17 -1
v 16 0 4
v 16 0 2
v 16 0 -2
v 16 0 -4
v 16 1 2
v 16 1 -2
v 16 2 4
v 16 2 2
v 16 2 -2
v 16 2 -4
v -16 0 4
v -16 2 4
v 16 0 4
v 16 2 4
v -14 1 1
v -14 17 1
v -12 1 1
v -12 17 1
v 12 1 1
v 12 17 1
v 14 1 1
v 14 17 1
v -16 1 -2
v -16 2 -2
v 16 1 -2
v 16 2 -2
v -16 1 2
v -16 2 2
v 16 1 2
v 16 2 2
v -14 1 -1
v -14 17 -1
v -12 1 -1
v -12 17 -1
v 12 1 -1
v 12 17 -1
v 14 1 -1
v 14 17 -1
v -16 0 -4
v -16 2 -4
v 16 0 -4
v 16 2 -4
v -16 0 4
v 16 0 4
v -16 0 2
v 16 0 2
v -16 0 -2
v 16 0 -2
v -16 0 -4
v 16 0 -4
v -16 1 2
v 16 1 2
v -14 1 1
v -12 1 1
v 12 1 1
v 14 1 1
v -14 1 -1
v -12 1 -1
v 12 1 -1
v 14 1 -1
v -16 1 -2
v 16 1 -2
v -16 2 4
v 16 2 4
v -16 2 2
v 16 2 2
v -16 2 -2
v 16 2 -2
v -16 2 -4
v 16 2 -4
v -14 17 1
v -12 17 1
v 12 17 1
v 14 17 1
v -14 17 -1
v -12 17 -1
v 12 17 -1
v 14 17 -1

# faces
f 5/1/1 2/1/1 1/1/1
f 5/2/1 3/2/1 2/2/1
f 6/1/1 4/1/1 3/1/1
f 6/2/1 3/2/1 5/2/1
f 7/1/1 5/1/1 1/1/1
f 8/1/1 5/1/1 7/1/1
f 9/1/1 4/1/1 6/1/1
f 10/1/1 4/1/1 9/1/1
f 13/1/1 12/1/1 11/1/1
f 14/1/1 12/1/1 13/1/1
f 17/1/1 16/1/1 15/1/1
f 18/1/1 16/1/1 17/1/1
f 19/1/2 20/1/2 21/1/2
f 21/1/2 20/1/2 22/1/2
f 23/1/2 24/1/2 25/1/2
f 25/1/2 24/1/2 26/1/2
f 27/1/2 28/1/2 31/1/2
f 28/2/2 29/2/2 31/2/2
f 29/1/2 30/1/2 32/1/2
f 31/2/2 29/2/2 32/2/2
f 27/1/2 31/1/2 33/1/2
f 33/1/2 31/1/2 34/1/2
f 32/1/2 30/1/2 35/1/2
f 35/1/2 30/1/2 36/1/2
f 39/1/3 38/1/3 37/1/3
f 40/1/3 38/1/3 39/1/3
f 43/1/3 42/1/3 41/1/3
f 44/1/3 42/1/3 43/1/3
f 47/1/3 46/1/3 45/1/3
f 48/1/3 46/1/3 47/1/3
f 51/1/3 50/1/3 49/1/3
f 52/1/3 50/1/3 51/1/3
f 53/1/4 54/1/4 55/1/4
f 55/1/4 54/1/4 56/1/4
f 57/1/4 58/1/4 59/1/4
f 59/1/4 58/1/4 60/1/4
f 61/1/4 62/1/4 63/1/4
f 63/1/4 62/1/4 64/1/4
f 65/1/4 66/1/4 67/1/4
f 67/1/4 66/1/4 68/1/4
f 71/1/5 70/1/5 69/1/5
f 72/1/5 70/1/5 71/1/5
f 73/2/5 72/2/5 71/2/5
f 74/2/5 72/2/5 73/2/5
f 75/1/5 74/1/5 73/1/5
f 76/1/5 74/1/5 75/1/5
f 77/2/6 78/2/6 79/2/6
f 79/2/6 78/2/6 80/2/6
f 80/2/6 78/2/6 81/2/6
f 81/2/6 78/2/6 82/2/6
f 77/2/6 79/2/6 83/2/6
f 80/2/6 81/2/6 84/2/6
f 84/2/6 81/2/6 85/2/6
f 82/2/6 78/2/6 86/2/6
f 84/2/6 85/2/6 87/2/6
f 85/2/6 86/2/6 87/2/6
f 77/2/6 83/2/6 87/2/6
f 83/2/6 84/2/6 87/2/6
f 86/2/6 78/2/6 88/2/6
f 87/2/6 86/2/6 88/2/6
f 89/1/6 90/1/6 91/1/6
f 91/1/6 90/1/6 92/1/6
f 93/1/6 94/1/6 95/1/6
f 95/1/6 94/1/6 96/1/6
f 97/1/6 98/1/6 101/1/6
f 101/1/6 98/1/6 102/1/6
f 99/1/6 100/1/6 103/1/6
f 103/1/6 100/1/6 104/1/6
